<?xml version="1.0" encoding="UTF-8"?>
<svg id="Capa_1" xmlns="http://www.w3.org/2000/svg" viewBox="0 0 662.09 597.9">
  <defs>
    <style>
      .cls-1 {
        fill: #fff;
      }

      .cls-2 {
        fill: #fcd45f;
      }
    </style>
  </defs>
  <g>
    <path class="cls-1" d="M152.6,526.83c-9.43,12.51-22.67,17.84-37.24,17.84-28.63,0-51.63-19.88-51.63-76.04s23-76.46,51.63-76.46c14.23,0,27.3,5.33,36.57,17.63l-18.2,27.66c-6.45-14.75-17.21-23.98-41.2-23.98-7.5-.04-11.14,8.01-10.92,24.17,0,10.43,1.68,23.38,4.63,37.12,6.13,28.28,16.88,53.49,47.33,53.49,6.29,0,12.74-1.03,19.03-1.44Z"/>
    <path class="cls-1" d="M169.86,518.03v-99.23c-.02-1.83-.31-15.01-6.46-23.77h33.6c-6.29,12.1-6.29,23.99-6.29,23.99v108.63h25.49c2.57-.22,4.88-1.25,6.95-3.08l10.42-10.04,8.6,27.26h-78.77c6.14-8.76,6.44-21.92,6.46-23.76Z"/>
    <path class="cls-1" d="M324.31,541.79c4.13-5.57,5.56-11.58,4.3-18.04-2.82-13.33-7.28-24.8-7.28-24.8h-36.9l-2.98,13.32c-1.75,7.6-3.09,13.28-3.09,18.23,0,3.99.87,7.53,3.09,11.29h-29.95c6.95-8.82,10.92-15.79,15.06-29.52l25.31-92.03c2.55-8.45,3.59-13.72,3.59-18.58,0-3.03-.4-5.91-1.11-9.3h18.86l30.28,102.89c5.29,16.19,10.59,37.1,20.69,46.53h-39.88ZM317.19,485.01l-14.73-47.96-14.06,47.76,28.78.2Z"/>
    <path class="cls-1" d="M471.22,541.79s-7.31,1.6-14.91,1.6c-5.18,0-10.49-.74-13.71-3.23-6.95-5.33-35.07-60.79-40.54-71.74v49.4s0,13.73,6.29,23.98h-35.41c6.13-8.82,6.46-21.94,6.46-23.78v-99.2c0-1.84-.33-14.96-6.46-23.78h49.14s31.6,0,31.6,30.96-16.21,39.35-26.47,42.02c6.29,13.32,29.79,61.89,44.02,73.78ZM432.17,430.7c0-21.31-22.84-21.31-22.84-21.31h-7.28v51.43h7.28s22.84-.41,22.84-30.12Z"/>
    <path class="cls-1" d="M552.89,541.79c4.13-5.57,5.56-11.58,4.3-18.04-2.82-13.33-7.28-24.8-7.28-24.8h-36.9l-2.98,13.32c-1.75,7.6-3.08,13.28-3.08,18.23,0,3.99.87,7.53,3.08,11.29h-29.95c6.95-8.82,10.92-15.79,15.06-29.52l25.31-92.03c2.55-8.45,3.59-13.72,3.59-18.58,0-3.03-.4-5.91-1.11-9.3h18.86l30.28,102.89c5.29,16.19,10.59,37.1,20.69,46.53h-39.88ZM545.77,485.01l-14.73-47.96-14.06,47.76,28.79.2Z"/>
  </g>
  <g>
    <polygon class="cls-2" points="331.77 48.73 325.48 48.73 327.06 171.22 330.19 171.22 331.77 48.73"/>
    <polygon class="cls-2" points="296.49 52.45 290.41 54.08 323.65 171.99 326.67 171.18 296.49 52.45"/>
    <polygon class="cls-2" points="263.38 65.17 257.93 68.32 320.55 173.61 323.26 172.04 263.38 65.17"/>
    <polygon class="cls-2" points="234.69 86.03 230.24 90.48 317.97 175.98 320.19 173.76 234.69 86.03"/>
    <polygon class="cls-2" points="212.37 113.6 209.22 119.05 316.1 178.93 317.66 176.22 212.37 113.6"/>
    <polygon class="cls-2" points="197.95 146.01 196.32 152.09 315.05 182.27 315.86 179.25 197.95 146.01"/>
    <polygon class="cls-2" points="192.41 181.05 192.41 187.35 314.91 185.76 314.91 182.63 192.41 181.05"/>
    <polygon class="cls-2" points="464.09 188.09 464.09 181.79 341.6 183.37 341.6 186.51 464.09 188.09"/>
    <polygon class="cls-2" points="460.38 152.81 458.75 146.73 340.83 179.96 341.64 182.99 460.38 152.81"/>
    <polygon class="cls-2" points="447.65 119.7 444.51 114.24 339.21 176.86 340.78 179.57 447.65 119.7"/>
    <polygon class="cls-2" points="426.79 91 422.34 86.55 336.85 174.29 339.06 176.5 426.79 91"/>
    <polygon class="cls-2" points="399.22 68.69 393.77 65.54 333.89 172.41 336.6 173.98 399.22 68.69"/>
    <polygon class="cls-2" points="366.81 54.27 360.73 52.64 330.55 171.37 333.58 172.18 366.81 54.27"/>
    <circle class="cls-2" cx="328.48" cy="175.8" r="35.16"/>
  </g>
  <g>
    <path class="cls-1" d="M223.5,283.37c0,35.61-24.19,35.76-24.19,35.76h-15.54v20.27s0,9.69,4.44,16.93h-25.01c4.35-6.18,4.56-15.49,4.56-16.78v-70.08c0-1.29-.22-10.6-4.56-16.78h37.98s22.31,0,22.32,30.69ZM208.31,283.37c0-20.55-16.13-20.61-16.13-20.61h-8.42v50.17c11.04-.39,24.54-3.58,24.54-29.55Z"/>
    <path class="cls-1" d="M466.16,356.32c2.81-3.79,3.79-7.88,2.93-12.28-1.92-9.07-4.96-16.88-4.96-16.88h-25.11l-2.03,9.07c-1.19,5.18-2.1,9.04-2.1,12.41,0,2.72.6,5.13,2.1,7.68h-20.38c4.73-6,7.43-10.75,10.25-20.09l17.23-62.64c1.74-5.75,2.45-9.34,2.45-12.65,0-2.06-.27-4.02-.75-6.33h12.84l20.61,70.03c3.61,11.02,7.21,25.25,14.08,31.67h-27.14ZM461.32,317.68l-10.02-32.65-9.57,32.51,19.59.14Z"/>
    <path class="cls-1" d="M340.3,356.32c2.81-3.79,3.79-7.88,2.93-12.28-1.92-9.07-4.96-16.88-4.96-16.88h-25.11l-2.03,9.07c-1.19,5.18-2.1,9.04-2.1,12.41,0,2.72.6,5.13,2.1,7.68h-20.38c4.73-6,7.43-10.75,10.25-20.09l17.23-62.64c1.74-5.75,2.45-9.34,2.45-12.65,0-2.06-.27-4.02-.75-6.33h12.84l20.61,70.03c3.61,11.02,7.21,25.25,14.08,31.67h-27.14ZM335.46,317.68l-10.02-32.65-9.57,32.51,19.59.14Z"/>
    <path class="cls-1" d="M233.2,339.54v-70.08c-.01-1.29-.22-10.6-4.56-16.79h23.73c-4.44,8.55-4.44,16.94-4.44,16.94v76.72h18c1.81-.15,3.45-.88,4.91-2.17l7.36-7.09,6.08,19.25h-55.63c4.34-6.18,4.55-15.48,4.56-16.78Z"/>
    <path class="cls-1" d="M427.6,254.82c-4.74,5.82-8.34,11.48-11.71,19.02-3.37,7.54-15.19,35.91-15.19,35.91l-.02,25.13c0,10.64,1.04,15.19,3.98,21.43h-22.82c4.1-5.68,4.31-11.07,4.32-22.43v-22.43s-15.41-35.44-17.66-40.6c-2.26-5.17-5.68-11.07-9.8-16.04h25.49c-2.6,4.94-3.07,7.59-.74,13.63,2.32,6.04,7.36,19.31,12.72,32.23,0,0,10.42-26.48,12.66-31.94,2.23-5.46,1.66-9.53-1.04-13.91h19.81Z"/>
  </g>
</svg>